<?xml version="1.0" encoding="utf-8" standalone="no"?>
<!DOCTYPE svg PUBLIC "-//W3C//DTD SVG 1.1//EN"
  "http://www.w3.org/Graphics/SVG/1.1/DTD/svg11.dtd">
<svg xmlns:xlink="http://www.w3.org/1999/xlink" width="460.8pt" height="259.2pt" viewBox="0 0 460.8 259.2" xmlns="http://www.w3.org/2000/svg" version="1.1">
 <metadata>
  <rdf:RDF xmlns:dc="http://purl.org/dc/elements/1.1/" xmlns:cc="http://creativecommons.org/ns#" xmlns:rdf="http://www.w3.org/1999/02/22-rdf-syntax-ns#">
   <cc:Work>
    <dc:type rdf:resource="http://purl.org/dc/dcmitype/StillImage"/>
    <dc:date>2026-09-26T10:28:18.323053</dc:date>
    <dc:format>image/svg+xml</dc:format>
    <dc:creator>
     <cc:Agent>
      <dc:title>Matplotlib v3.11.2, https://matplotlib.org/</dc:title>
     </cc:Agent>
    </dc:creator>
   </cc:Work>
  </rdf:RDF>
 </metadata>
 <defs>
  <style type="text/css">*{stroke-linejoin: round; stroke-linecap: butt}</style>
 </defs>
 <g id="figure_1">
  <g id="patch_1">
   <path d="M 0 259.2 
L 460.8 259.2 
L 460.8 0 
L 0 0 
z
" style="fill: #ffffff"/>
  </g>
  <g id="axes_1">
   <g id="patch_2">
    <path d="M 62.68 214.32 
L 448.92 214.32 
L 448.92 11.88 
L 62.68 11.88 
z
" style="fill: #ffffff"/>
   </g>
   <g id="matplotlib.axis_1">
    <g id="xtick_1">
     <g id="line2d_1">
      <defs>
       <path id="m02348e3c24" d="M 0 0 
L 0 3.5 
" style="stroke: #1c1b19; stroke-width: 0.8"/>
      </defs>
      <g>
       <use xlink:href="#m02348e3c24" x="80.236364" y="214.32" style="fill: #1c1b19; stroke: #1c1b19; stroke-width: 0.8"/>
      </g>
     </g>
     <g id="text_1">
      <text style="font-size: 11px; font-family: 'DejaVu Sans', 'Bitstream Vera Sans', 'Computer Modern Sans Serif', 'Lucida Grande', 'Verdana', 'Geneva', 'Lucid', 'Arial', 'Helvetica', 'Avant Garde', sans-serif; text-anchor: middle; fill: #1c1b19" x="80.236364" y="229.677422" transform="rotate(-0 80.236364 229.677422)">0</text>
     </g>
    </g>
    <g id="xtick_2">
     <g id="line2d_2">
      <g>
       <use xlink:href="#m02348e3c24" x="134.255944" y="214.32" style="fill: #1c1b19; stroke: #1c1b19; stroke-width: 0.8"/>
      </g>
     </g>
     <g id="text_2">
      <text style="font-size: 11px; font-family: 'DejaVu Sans', 'Bitstream Vera Sans', 'Computer Modern Sans Serif', 'Lucida Grande', 'Verdana', 'Geneva', 'Lucid', 'Arial', 'Helvetica', 'Avant Garde', sans-serif; text-anchor: middle; fill: #1c1b19" x="134.255944" y="229.677422" transform="rotate(-0 134.255944 229.677422)">2</text>
     </g>
    </g>
    <g id="xtick_3">
     <g id="line2d_3">
      <g>
       <use xlink:href="#m02348e3c24" x="188.275524" y="214.32" style="fill: #1c1b19; stroke: #1c1b19; stroke-width: 0.8"/>
      </g>
     </g>
     <g id="text_3">
      <text style="font-size: 11px; font-family: 'DejaVu Sans', 'Bitstream Vera Sans', 'Computer Modern Sans Serif', 'Lucida Grande', 'Verdana', 'Geneva', 'Lucid', 'Arial', 'Helvetica', 'Avant Garde', sans-serif; text-anchor: middle; fill: #1c1b19" x="188.275524" y="229.677422" transform="rotate(-0 188.275524 229.677422)">4</text>
     </g>
    </g>
    <g id="xtick_4">
     <g id="line2d_4">
      <g>
       <use xlink:href="#m02348e3c24" x="242.295105" y="214.32" style="fill: #1c1b19; stroke: #1c1b19; stroke-width: 0.8"/>
      </g>
     </g>
     <g id="text_4">
      <text style="font-size: 11px; font-family: 'DejaVu Sans', 'Bitstream Vera Sans', 'Computer Modern Sans Serif', 'Lucida Grande', 'Verdana', 'Geneva', 'Lucid', 'Arial', 'Helvetica', 'Avant Garde', sans-serif; text-anchor: middle; fill: #1c1b19" x="242.295105" y="229.677422" transform="rotate(-0 242.295105 229.677422)">6</text>
     </g>
    </g>
    <g id="xtick_5">
     <g id="line2d_5">
      <g>
       <use xlink:href="#m02348e3c24" x="296.314685" y="214.32" style="fill: #1c1b19; stroke: #1c1b19; stroke-width: 0.8"/>
      </g>
     </g>
     <g id="text_5">
      <text style="font-size: 11px; font-family: 'DejaVu Sans', 'Bitstream Vera Sans', 'Computer Modern Sans Serif', 'Lucida Grande', 'Verdana', 'Geneva', 'Lucid', 'Arial', 'Helvetica', 'Avant Garde', sans-serif; text-anchor: middle; fill: #1c1b19" x="296.314685" y="229.677422" transform="rotate(-0 296.314685 229.677422)">8</text>
     </g>
    </g>
    <g id="xtick_6">
     <g id="line2d_6">
      <g>
       <use xlink:href="#m02348e3c24" x="350.334266" y="214.32" style="fill: #1c1b19; stroke: #1c1b19; stroke-width: 0.8"/>
      </g>
     </g>
     <g id="text_6">
      <text style="font-size: 11px; font-family: 'DejaVu Sans', 'Bitstream Vera Sans', 'Computer Modern Sans Serif', 'Lucida Grande', 'Verdana', 'Geneva', 'Lucid', 'Arial', 'Helvetica', 'Avant Garde', sans-serif; text-anchor: middle; fill: #1c1b19" x="350.334266" y="229.677422" transform="rotate(-0 350.334266 229.677422)">10</text>
     </g>
    </g>
    <g id="xtick_7">
     <g id="line2d_7">
      <g>
       <use xlink:href="#m02348e3c24" x="404.353846" y="214.32" style="fill: #1c1b19; stroke: #1c1b19; stroke-width: 0.8"/>
      </g>
     </g>
     <g id="text_7">
      <text style="font-size: 11px; font-family: 'DejaVu Sans', 'Bitstream Vera Sans', 'Computer Modern Sans Serif', 'Lucida Grande', 'Verdana', 'Geneva', 'Lucid', 'Arial', 'Helvetica', 'Avant Garde', sans-serif; text-anchor: middle; fill: #1c1b19" x="404.353846" y="229.677422" transform="rotate(-0 404.353846 229.677422)">12</text>
     </g>
    </g>
    <g id="text_8">
     <text style="font-size: 11px; font-family: 'DejaVu Sans', 'Bitstream Vera Sans', 'Computer Modern Sans Serif', 'Lucida Grande', 'Verdana', 'Geneva', 'Lucid', 'Arial', 'Helvetica', 'Avant Garde', sans-serif; text-anchor: middle; fill: #1c1b19" x="255.8" y="244.678281" transform="rotate(-0 255.8 244.678281)">Bonus paid to the pre-liquidator (%)</text>
    </g>
   </g>
   <g id="matplotlib.axis_2">
    <g id="ytick_1">
     <g id="line2d_8">
      <defs>
       <path id="mf6b9e7f67b" d="M 0 0 
L -3.5 0 
" style="stroke: #1c1b19; stroke-width: 0.8"/>
      </defs>
      <g>
       <use xlink:href="#mf6b9e7f67b" x="62.68" y="214.32" style="fill: #1c1b19; stroke: #1c1b19; stroke-width: 0.8"/>
      </g>
     </g>
     <g id="text_9">
      <text style="font-size: 11px; font-family: 'DejaVu Sans', 'Bitstream Vera Sans', 'Computer Modern Sans Serif', 'Lucida Grande', 'Verdana', 'Geneva', 'Lucid', 'Arial', 'Helvetica', 'Avant Garde', sans-serif; text-anchor: end; fill: #1c1b19" x="55.68" y="218.498711" transform="rotate(-0 55.68 218.498711)">0</text>
     </g>
    </g>
    <g id="ytick_2">
     <g id="line2d_9">
      <g>
       <use xlink:href="#mf6b9e7f67b" x="62.68" y="174.860319" style="fill: #1c1b19; stroke: #1c1b19; stroke-width: 0.8"/>
      </g>
     </g>
     <g id="text_10">
      <text style="font-size: 11px; font-family: 'DejaVu Sans', 'Bitstream Vera Sans', 'Computer Modern Sans Serif', 'Lucida Grande', 'Verdana', 'Geneva', 'Lucid', 'Arial', 'Helvetica', 'Avant Garde', sans-serif; text-anchor: end; fill: #1c1b19" x="55.68" y="179.03903" transform="rotate(-0 55.68 179.03903)">500</text>
     </g>
    </g>
    <g id="ytick_3">
     <g id="line2d_10">
      <g>
       <use xlink:href="#mf6b9e7f67b" x="62.68" y="135.400639" style="fill: #1c1b19; stroke: #1c1b19; stroke-width: 0.8"/>
      </g>
     </g>
     <g id="text_11">
      <text style="font-size: 11px; font-family: 'DejaVu Sans', 'Bitstream Vera Sans', 'Computer Modern Sans Serif', 'Lucida Grande', 'Verdana', 'Geneva', 'Lucid', 'Arial', 'Helvetica', 'Avant Garde', sans-serif; text-anchor: end; fill: #1c1b19" x="55.68" y="139.579349" transform="rotate(-0 55.68 139.579349)">1000</text>
     </g>
    </g>
    <g id="ytick_4">
     <g id="line2d_11">
      <g>
       <use xlink:href="#mf6b9e7f67b" x="62.68" y="95.940958" style="fill: #1c1b19; stroke: #1c1b19; stroke-width: 0.8"/>
      </g>
     </g>
     <g id="text_12">
      <text style="font-size: 11px; font-family: 'DejaVu Sans', 'Bitstream Vera Sans', 'Computer Modern Sans Serif', 'Lucida Grande', 'Verdana', 'Geneva', 'Lucid', 'Arial', 'Helvetica', 'Avant Garde', sans-serif; text-anchor: end; fill: #1c1b19" x="55.68" y="100.119669" transform="rotate(-0 55.68 100.119669)">1500</text>
     </g>
    </g>
    <g id="ytick_5">
     <g id="line2d_12">
      <g>
       <use xlink:href="#mf6b9e7f67b" x="62.68" y="56.481277" style="fill: #1c1b19; stroke: #1c1b19; stroke-width: 0.8"/>
      </g>
     </g>
     <g id="text_13">
      <text style="font-size: 11px; font-family: 'DejaVu Sans', 'Bitstream Vera Sans', 'Computer Modern Sans Serif', 'Lucida Grande', 'Verdana', 'Geneva', 'Lucid', 'Arial', 'Helvetica', 'Avant Garde', sans-serif; text-anchor: end; fill: #1c1b19" x="55.68" y="60.659988" transform="rotate(-0 55.68 60.659988)">2000</text>
     </g>
    </g>
    <g id="ytick_6">
     <g id="line2d_13">
      <g>
       <use xlink:href="#mf6b9e7f67b" x="62.68" y="17.021596" style="fill: #1c1b19; stroke: #1c1b19; stroke-width: 0.8"/>
      </g>
     </g>
     <g id="text_14">
      <text style="font-size: 11px; font-family: 'DejaVu Sans', 'Bitstream Vera Sans', 'Computer Modern Sans Serif', 'Lucida Grande', 'Verdana', 'Geneva', 'Lucid', 'Arial', 'Helvetica', 'Avant Garde', sans-serif; text-anchor: end; fill: #1c1b19" x="55.68" y="21.200307" transform="rotate(-0 55.68 21.200307)">2500</text>
     </g>
    </g>
    <g id="text_15">
     <text style="font-size: 11px; font-family: 'DejaVu Sans', 'Bitstream Vera Sans', 'Computer Modern Sans Serif', 'Lucida Grande', 'Verdana', 'Geneva', 'Lucid', 'Arial', 'Helvetica', 'Avant Garde', sans-serif; text-anchor: middle; fill: #1c1b19" x="21.042422" y="113.1" transform="rotate(-90 21.042422 113.1)">Pre-liquidations</text>
    </g>
   </g>
   <g id="patch_3">
    <path d="M 80.236364 214.32 
L 80.236364 214.083242 
L 86.988811 214.083242 
L 86.988811 214.32 
L 93.741259 214.32 
L 93.741259 214.32 
L 100.493706 214.32 
L 100.493706 214.32 
L 107.246154 214.32 
L 107.246154 214.32 
L 113.998601 214.32 
L 113.998601 214.32 
L 120.751049 214.32 
L 120.751049 175.807352 
L 127.503497 175.807352 
L 127.503497 214.32 
L 134.255944 214.32 
L 134.255944 214.32 
L 141.008392 214.32 
L 141.008392 214.32 
L 147.760839 214.32 
L 147.760839 195.616111 
L 154.513287 195.616111 
L 154.513287 214.32 
L 161.265734 214.32 
L 161.265734 214.32 
L 168.018182 214.32 
L 168.018182 214.32 
L 174.770629 214.32 
L 174.770629 214.32 
L 181.523077 214.32 
L 181.523077 214.32 
L 188.275524 214.32 
L 188.275524 214.32 
L 195.027972 214.32 
L 195.027972 38.093066 
L 201.78042 38.093066 
L 201.78042 214.32 
L 208.532867 214.32 
L 208.532867 212.662693 
L 215.285315 212.662693 
L 215.285315 213.05729 
L 222.037762 213.05729 
L 222.037762 214.004323 
L 228.79021 214.004323 
L 228.79021 214.162161 
L 235.542657 214.162161 
L 235.542657 214.32 
L 242.295105 214.32 
L 242.295105 214.32 
L 249.047552 214.32 
L 249.047552 214.32 
L 255.8 214.32 
L 255.8 214.32 
L 262.552448 214.32 
L 262.552448 214.32 
L 269.304895 214.32 
L 269.304895 214.32 
L 276.057343 214.32 
L 276.057343 212.347016 
L 282.80979 212.347016 
L 282.80979 214.32 
L 289.562238 214.32 
L 289.562238 214.241081 
L 296.314685 214.241081 
L 296.314685 214.32 
L 303.067133 214.32 
L 303.067133 214.32 
L 309.81958 214.32 
L 309.81958 214.32 
L 316.572028 214.32 
L 316.572028 214.32 
L 323.324476 214.32 
L 323.324476 214.32 
L 330.076923 214.32 
L 330.076923 214.32 
L 336.829371 214.32 
L 336.829371 214.32 
L 343.581818 214.32 
L 343.581818 214.32 
L 350.334266 214.32 
L 350.334266 214.32 
L 357.086713 214.32 
L 357.086713 214.32 
L 363.839161 214.32 
L 363.839161 214.32 
L 370.591608 214.32 
L 370.591608 214.32 
L 377.344056 214.32 
L 377.344056 214.32 
L 384.096503 214.32 
L 384.096503 214.32 
L 390.848951 214.32 
L 390.848951 214.32 
L 397.601399 214.32 
L 397.601399 214.32 
L 404.353846 214.32 
L 404.353846 214.32 
L 411.106294 214.32 
L 411.106294 214.32 
L 417.858741 214.32 
L 417.858741 214.32 
L 424.611189 214.32 
L 424.611189 214.32 
L 431.363636 214.32 
L 431.363636 214.32 
" clip-path="url(#p644c977d51)" style="fill: none; stroke: #1d4ed8; stroke-width: 1.8; stroke-linejoin: miter"/>
   </g>
   <g id="patch_4">
    <path d="M 80.236364 214.32 
L 80.236364 214.32 
L 86.988811 214.32 
L 86.988811 214.32 
L 93.741259 214.32 
L 93.741259 214.32 
L 100.493706 214.32 
L 100.493706 214.241081 
L 107.246154 214.241081 
L 107.246154 213.925403 
L 113.998601 213.925403 
L 113.998601 214.32 
L 120.751049 214.32 
L 120.751049 214.241081 
L 127.503497 214.241081 
L 127.503497 214.004323 
L 134.255944 214.004323 
L 134.255944 214.162161 
L 141.008392 214.162161 
L 141.008392 214.241081 
L 147.760839 214.241081 
L 147.760839 214.004323 
L 154.513287 214.004323 
L 154.513287 214.083242 
L 161.265734 214.083242 
L 161.265734 214.241081 
L 168.018182 214.241081 
L 168.018182 214.241081 
L 174.770629 214.241081 
L 174.770629 214.241081 
L 181.523077 214.241081 
L 181.523077 214.32 
L 188.275524 214.32 
L 188.275524 213.925403 
L 195.027972 213.925403 
L 195.027972 21.52 
L 201.78042 21.52 
L 201.78042 168.310012 
L 208.532867 168.310012 
L 208.532867 206.112386 
L 215.285315 206.112386 
L 215.285315 211.715661 
L 222.037762 211.715661 
L 222.037762 212.347016 
L 228.79021 212.347016 
L 228.79021 213.925403 
L 235.542657 213.925403 
L 235.542657 214.241081 
L 242.295105 214.241081 
L 242.295105 214.32 
L 249.047552 214.32 
L 249.047552 214.32 
L 255.8 214.32 
L 255.8 214.32 
L 262.552448 214.32 
L 262.552448 214.32 
L 269.304895 214.32 
L 269.304895 214.241081 
L 276.057343 214.241081 
L 276.057343 211.163226 
L 282.80979 211.163226 
L 282.80979 213.294048 
L 289.562238 213.294048 
L 289.562238 213.688645 
L 296.314685 213.688645 
L 296.314685 214.083242 
L 303.067133 214.083242 
L 303.067133 214.162161 
L 309.81958 214.162161 
L 309.81958 214.162161 
L 316.572028 214.162161 
L 316.572028 214.32 
L 323.324476 214.32 
L 323.324476 214.32 
L 330.076923 214.32 
L 330.076923 214.32 
L 336.829371 214.32 
L 336.829371 214.32 
L 343.581818 214.32 
L 343.581818 214.32 
L 350.334266 214.32 
L 350.334266 214.32 
L 357.086713 214.32 
L 357.086713 214.32 
L 363.839161 214.32 
L 363.839161 214.32 
L 370.591608 214.32 
L 370.591608 214.32 
L 377.344056 214.32 
L 377.344056 214.32 
L 384.096503 214.32 
L 384.096503 214.32 
L 390.848951 214.32 
L 390.848951 214.32 
L 397.601399 214.32 
L 397.601399 214.32 
L 404.353846 214.32 
L 404.353846 214.32 
L 411.106294 214.32 
L 411.106294 214.32 
L 417.858741 214.32 
L 417.858741 208.558887 
L 424.611189 208.558887 
L 424.611189 214.32 
L 431.363636 214.32 
L 431.363636 214.32 
" clip-path="url(#p644c977d51)" style="fill: none; stroke: #8a857b; stroke-width: 1.8; stroke-linejoin: miter"/>
   </g>
   <g id="patch_5">
    <path d="M 62.68 214.32 
L 62.68 11.88 
" style="fill: none; stroke: #8a857b; stroke-width: 0.8; stroke-linejoin: miter; stroke-linecap: square"/>
   </g>
   <g id="patch_6">
    <path d="M 62.68 214.32 
L 448.92 214.32 
" style="fill: none; stroke: #8a857b; stroke-width: 0.8; stroke-linejoin: miter; stroke-linecap: square"/>
   </g>
   <g id="legend_1">
    <g id="patch_7">
     <path d="M 329.7825 26.818594 
L 347.7825 26.818594 
L 347.7825 20.518594 
L 329.7825 20.518594 
L 329.7825 26.818594 
z
" style="fill: none; stroke: #1d4ed8; stroke-width: 1.8; stroke-linejoin: miter"/>
    </g>
    <g id="text_16">
     <text style="font-size: 9px; font-family: 'DejaVu Sans', 'Bitstream Vera Sans', 'Computer Modern Sans Serif', 'Lucida Grande', 'Verdana', 'Geneva', 'Lucid', 'Arial', 'Helvetica', 'Avant Garde', sans-serif; text-anchor: start" x="354.9825" y="26.818594" transform="rotate(-0 354.9825 26.818594)">Ethereum, n=3030</text>
    </g>
    <g id="patch_8">
     <path d="M 329.7825 40.319297 
L 347.7825 40.319297 
L 347.7825 34.019297 
L 329.7825 34.019297 
L 329.7825 40.319297 
z
" style="fill: none; stroke: #8a857b; stroke-width: 1.8; stroke-linejoin: miter"/>
    </g>
    <g id="text_17">
     <text style="font-size: 9px; font-family: 'DejaVu Sans', 'Bitstream Vera Sans', 'Computer Modern Sans Serif', 'Lucida Grande', 'Verdana', 'Geneva', 'Lucid', 'Arial', 'Helvetica', 'Avant Garde', sans-serif; text-anchor: start" x="354.9825" y="40.319297" transform="rotate(-0 354.9825 40.319297)">Base, n=3365</text>
    </g>
   </g>
  </g>
 </g>
 <defs>
  <clipPath id="p644c977d51">
   <rect x="62.68" y="11.88" width="386.24" height="202.44"/>
  </clipPath>
 </defs>
</svg>
